<svg xmlns="http://www.w3.org/2000/svg" id="Layer_2" data-name="Layer 2" viewBox="0 0 226.82 307.98"><defs><style>.cls-1{fill:#ef635d}.cls-2{fill:#5b50a0}.cls-3{fill:#cdd57e}.cls-4,.cls-5{fill:none;stroke:#000;stroke-width:2px}.cls-4{stroke-miterlimit:10}.cls-5{stroke-linecap:round;stroke-linejoin:round}.cls-6{fill:#433c96}</style></defs><g id="Layer_1-2" data-name="Layer 1"><g><g><polygon points="1 238.94 1 152.2 1 65.88 113.41 130.78 113.41 307 1 238.94" class="cls-1"/><g><path d="m113.53,130.85l112.16-64.76v42.98l-74.88,43.23s-.06.06-.06.11v86.53s.02.09.06.11c.02.01.04.02.06.02s.04,0,.06-.02l74.75-43.16v42.98s-112.16,67.91-112.16,67.91v-175.93Z" class="cls-2"/><path d="m225.57,66.31v42.69l-74.81,43.19c-.08.04-.12.13-.12.22v86.53c0,.09.05.17.13.22.04.02.08.03.12.03s.09-.01.12-.03l74.56-43.05v42.69s-111.91,67.76-111.91,67.76v-175.64l111.91-64.61m.25-.43l-112.41,64.9v176.23l112.41-68.06v-43.27s-74.94,43.27-74.94,43.27v-86.53s74.94-43.27,74.94-43.27v-43.27h0Z"/></g><g><polygon points="37.25 217.31 73.97 196.11 73.97 238.51 37.25 217.31"/><path d="m73.72,196.54v41.53l-35.97-20.77,35.97-20.77m.5-.87l-37.47,21.63,37.47,21.63v-43.27h0Z"/></g><path d="m37.25,131.64l36.47,21.06v85.38l-36.47-21.06v-85.38m-.5-.87v86.53s37.47,21.63,37.47,21.63v-86.53l-37.47-21.63h0Z"/><g><polygon points="151.13 195.62 189.13 173.68 226.1 195.02 151.13 238.51 151.13 195.62"/><path d="m189.13,173.97l36.47,21.06-74.23,43.05v-42.31s37.75-21.8,37.75-21.8m0-.58l-38.25,22.09v43.47s75.72-43.92,75.72-43.92l-37.47-21.63h0Z"/></g><g><polygon points="37.75 132.51 73.22 152.99 73.22 195.1 37.75 215.58 37.75 132.51" class="cls-6"/><path d="m38.75,134.24l33.47,19.32v40.96l-33.47,19.32v-79.6m-2-3.46v86.53s37.47-21.63,37.47-21.63v-43.27l-37.47-21.63h0Z"/></g><g><polygon points="1.25 65.88 113.41 1.12 225.57 65.88 113.41 130.63 1.25 65.88" class="cls-3"/><path d="m113.41,1.27l74.86,43.22,37.04,21.39-111.91,64.61L1.5,65.88,113.41,1.27m0-.29L1,65.88l112.41,64.9,112.41-64.9-37.42-21.6h0L113.41.98h0Z"/></g></g><polyline points="1 238.92 1 65.9 113.41 1 225.82 65.86 225.82 109.12 150.88 152.39 150.88 238.92 225.82 195.65 225.82 238.92 113.41 306.98 1 238.92" class="cls-5"/><line x1="113.41" x2="113.41" y1="307" y2="129.61" class="cls-4"/><line x1="113.42" x2="225.81" y1="130.77" y2="65.88" class="cls-4"/><line x1="1" x2="113.41" y1="65.9" y2="130.76" class="cls-4"/></g></g></svg>