<svg xmlns="http://www.w3.org/2000/svg" xmlns:xlink="http://www.w3.org/1999/xlink" width="322" zoomAndPan="magnify" viewBox="0 0 241.5 374.999991" height="500" preserveAspectRatio="xMidYMid meet" version="1.0"><defs><clipPath id="ecc9029d08"><path d="M 0 0.386719 L 241 0.386719 L 241 374.613281 L 0 374.613281 Z M 0 0.386719 " clip-rule="nonzero"/></clipPath><clipPath id="46fa263af8"><path d="M 0.046875 0.386719 L 241 0.386719 L 241 374.613281 L 0.046875 374.613281 Z M 0.046875 0.386719 " clip-rule="nonzero"/></clipPath></defs><g clip-path="url(#ecc9029d08)"><path fill="#ffffff" d="M 0 0.386719 L 241.5 0.386719 L 241.5 382.136719 L 0 382.136719 Z M 0 0.386719 " fill-opacity="1" fill-rule="nonzero"/><path fill="#ffffff" d="M 0 0.386719 L 241.5 0.386719 L 241.5 375.386719 L 0 375.386719 Z M 0 0.386719 " fill-opacity="1" fill-rule="nonzero"/><path fill="#ffffff" d="M 0 0.386719 L 241.5 0.386719 L 241.5 375.386719 L 0 375.386719 Z M 0 0.386719 " fill-opacity="1" fill-rule="nonzero"/></g><g clip-path="url(#46fa263af8)"><path fill="#f5f5ff" d="M 225.273438 157.75 L 239.695312 202.550781 C 240.644531 205.488281 240.859375 208.429688 240.371094 211.25 C 240.503906 212.140625 240.574219 213.046875 240.574219 213.972656 L 240.574219 228.648438 C 240.574219 236.757812 235.230469 243.664062 227.878906 246.019531 L 227.878906 357.085938 C 227.878906 367.132812 219.683594 375.324219 209.636719 375.324219 L 31.886719 375.324219 C 21.835938 375.324219 13.640625 367.132812 13.640625 357.085938 L 13.640625 246.019531 C 6.292969 243.664062 0.949219 236.757812 0.949219 228.648438 L 0.949219 213.972656 C 0.949219 213.046875 1.019531 212.140625 1.152344 211.25 C 0.660156 208.429688 0.878906 205.488281 1.824219 202.550781 L 16.25 157.75 L 16.082031 71.265625 C 16.082031 71.238281 16.082031 71.207031 16.082031 71.179688 L 8.027344 59.675781 C 5.15625 55.570312 4.109375 50.808594 4.945312 46.164062 C 4.804688 45.253906 4.730469 44.328125 4.730469 43.382812 L 4.730469 18.617188 C 4.730469 8.570312 12.925781 0.378906 22.976562 0.378906 L 218.546875 0.378906 C 228.59375 0.378906 236.789062 8.570312 236.789062 18.617188 L 236.789062 43.382812 C 236.789062 44.328125 236.71875 45.253906 236.578125 46.164062 C 237.414062 50.808594 236.367188 55.566406 233.492188 59.671875 L 225.441406 71.179688 C 225.441406 71.207031 225.441406 71.238281 225.441406 71.265625 Z M 225.273438 157.75 " fill-opacity="1" fill-rule="evenodd"/></g><path fill="#5b50a0" d="M 26.15625 53.394531 L 215.363281 53.394531 L 215.363281 28.066406 L 26.15625 28.066406 Z M 217.898438 58.464844 L 23.621094 58.464844 C 22.21875 58.464844 21.082031 57.328125 21.082031 55.929688 L 21.082031 25.527344 C 21.082031 24.128906 22.21875 22.992188 23.617188 22.992188 L 217.898438 22.992188 C 219.300781 22.992188 220.4375 24.128906 220.4375 25.527344 L 220.4375 55.929688 C 220.4375 57.328125 219.300781 58.464844 217.898438 58.464844 Z M 217.898438 58.464844 " fill-opacity="1" fill-rule="evenodd"/><path fill="#5b50a0" d="M 34.898438 74.574219 C 34.097656 74.574219 33.308594 74.199219 32.816406 73.492188 L 21.539062 57.382812 C 20.738281 56.238281 21.015625 54.65625 22.164062 53.847656 C 23.3125 53.050781 24.894531 53.328125 25.699219 54.476562 L 36.972656 70.585938 C 37.777344 71.726562 37.496094 73.3125 36.347656 74.113281 C 35.90625 74.421875 35.398438 74.574219 34.898438 74.574219 Z M 206.621094 74.574219 C 206.121094 74.574219 205.613281 74.421875 205.167969 74.113281 C 204.019531 73.3125 203.742188 71.726562 204.546875 70.585938 L 215.820312 54.476562 C 216.625 53.328125 218.207031 53.050781 219.355469 53.847656 C 220.503906 54.65625 220.78125 56.238281 219.976562 57.382812 L 208.703125 73.492188 C 208.210938 74.195312 207.421875 74.574219 206.621094 74.574219 Z M 206.621094 74.574219 " fill-opacity="1" fill-rule="evenodd"/><path fill="#5b50a0" d="M 206.625 158.042969 L 169.710938 158.042969 C 168.308594 158.042969 167.175781 156.90625 167.175781 155.503906 C 167.175781 154.105469 168.308594 152.96875 169.710938 152.96875 L 204.089844 152.96875 L 204.089844 74.574219 L 37.433594 74.574219 L 37.433594 152.96875 L 157.734375 152.96875 C 159.136719 152.96875 160.273438 154.105469 160.273438 155.503906 C 160.273438 156.90625 159.136719 158.042969 157.734375 158.042969 L 34.894531 158.042969 C 33.496094 158.042969 32.359375 156.90625 32.359375 155.503906 L 32.359375 72.039062 C 32.359375 70.636719 33.496094 69.5 34.894531 69.5 L 206.625 69.5 C 208.027344 69.5 209.160156 70.636719 209.160156 72.039062 L 209.160156 155.503906 C 209.160156 156.90625 208.027344 158.042969 206.625 158.042969 Z M 206.625 158.042969 " fill-opacity="1" fill-rule="evenodd"/><path fill="#5b50a0" d="M 58.777344 138.480469 L 182.742188 138.480469 L 182.742188 89.0625 L 58.777344 89.0625 Z M 185.277344 143.550781 L 56.242188 143.550781 C 54.839844 143.550781 53.703125 142.414062 53.703125 141.015625 L 53.703125 86.527344 C 53.703125 85.128906 54.839844 83.992188 56.242188 83.992188 L 185.277344 83.992188 C 186.679688 83.992188 187.816406 85.128906 187.816406 86.527344 L 187.816406 141.015625 C 187.816406 142.414062 186.679688 143.550781 185.277344 143.550781 Z M 185.277344 143.550781 " fill-opacity="1" fill-rule="evenodd"/><path fill="#5b50a0" d="M 221.660156 204.742188 L 19.863281 204.742188 C 19.050781 204.742188 18.289062 204.351562 17.8125 203.699219 C 17.332031 203.042969 17.199219 202.199219 17.445312 201.425781 L 32.480469 154.726562 C 32.910156 153.390625 34.339844 152.664062 35.671875 153.085938 C 37.007812 153.515625 37.738281 154.949219 37.308594 156.285156 L 23.34375 199.667969 L 218.175781 199.667969 L 204.210938 156.285156 C 203.78125 154.949219 204.511719 153.515625 205.847656 153.085938 C 207.179688 152.660156 208.609375 153.398438 209.039062 154.726562 L 224.074219 201.425781 C 224.324219 202.199219 224.183594 203.042969 223.707031 203.699219 C 223.234375 204.351562 222.46875 204.742188 221.660156 204.742188 Z M 221.660156 204.742188 " fill-opacity="1" fill-rule="evenodd"/><path fill="#5b50a0" d="M 221.660156 219.320312 L 19.863281 219.320312 C 18.460938 219.320312 17.324219 218.183594 17.324219 216.785156 L 17.324219 202.207031 C 17.324219 200.800781 18.460938 199.671875 19.859375 199.671875 C 21.261719 199.671875 22.398438 200.800781 22.398438 202.207031 L 22.398438 214.246094 L 219.121094 214.246094 L 219.121094 202.207031 C 219.121094 200.800781 220.257812 199.671875 221.660156 199.671875 C 223.0625 199.671875 224.199219 200.800781 224.199219 202.207031 L 224.199219 216.785156 C 224.199219 218.183594 223.0625 219.320312 221.660156 219.320312 Z M 221.660156 219.320312 " fill-opacity="1" fill-rule="evenodd"/><path fill="#5b50a0" d="M 209.050781 352.710938 L 32.472656 352.710938 C 31.070312 352.710938 29.933594 351.574219 29.933594 350.175781 L 29.933594 216.78125 C 29.933594 215.382812 31.070312 214.246094 32.472656 214.246094 C 33.871094 214.246094 35.007812 215.382812 35.007812 216.78125 L 35.007812 347.636719 L 206.511719 347.636719 L 206.511719 216.78125 C 206.511719 215.382812 207.648438 214.246094 209.050781 214.246094 C 210.449219 214.246094 211.585938 215.382812 211.585938 216.78125 L 211.585938 350.175781 C 211.585938 351.574219 210.449219 352.710938 209.050781 352.710938 Z M 209.050781 352.710938 " fill-opacity="1" fill-rule="evenodd"/><path fill="#5b50a0" d="M 62.777344 166.964844 C 58.980469 166.964844 56.988281 168.601562 56.988281 169.171875 C 56.988281 169.738281 58.980469 171.375 62.777344 171.375 C 66.574219 171.375 68.566406 169.738281 68.566406 169.171875 C 68.566406 168.601562 66.574219 166.964844 62.777344 166.964844 Z M 62.777344 176.449219 C 56.582031 176.449219 51.914062 173.316406 51.914062 169.171875 C 51.914062 165.023438 56.582031 161.894531 62.777344 161.894531 C 68.96875 161.890625 73.640625 165.023438 73.640625 169.171875 C 73.640625 173.316406 68.96875 176.449219 62.777344 176.449219 Z M 62.777344 176.449219 " fill-opacity="1" fill-rule="evenodd"/><path fill="#5b50a0" d="M 90.617188 166.964844 C 86.816406 166.964844 84.828125 168.601562 84.828125 169.171875 C 84.828125 169.738281 86.816406 171.375 90.617188 171.375 C 94.414062 171.375 96.40625 169.738281 96.40625 169.171875 C 96.40625 168.601562 94.414062 166.964844 90.617188 166.964844 Z M 90.617188 176.449219 C 84.421875 176.449219 79.753906 173.316406 79.753906 169.171875 C 79.753906 165.023438 84.421875 161.894531 90.617188 161.894531 C 96.808594 161.890625 101.480469 165.023438 101.480469 169.171875 C 101.480469 173.316406 96.808594 176.449219 90.617188 176.449219 Z M 90.617188 176.449219 " fill-opacity="1" fill-rule="evenodd"/><path fill="#5b50a0" d="M 118.457031 166.964844 C 114.660156 166.964844 112.667969 168.601562 112.667969 169.171875 C 112.667969 169.738281 114.660156 171.375 118.457031 171.375 C 122.253906 171.375 124.246094 169.738281 124.246094 169.171875 C 124.246094 168.601562 122.253906 166.964844 118.457031 166.964844 Z M 118.457031 176.449219 C 112.261719 176.449219 107.59375 173.316406 107.59375 169.171875 C 107.59375 165.023438 112.261719 161.894531 118.457031 161.894531 C 124.648438 161.890625 129.320312 165.023438 129.320312 169.171875 C 129.320312 173.316406 124.648438 176.449219 118.457031 176.449219 Z M 118.457031 176.449219 " fill-opacity="1" fill-rule="evenodd"/><path fill="#5b50a0" d="M 163.722656 192.28125 C 155.136719 192.28125 146.445312 189.109375 146.445312 183.046875 C 146.445312 178.507812 151.683594 174.976562 159.785156 174.039062 C 161.175781 173.871094 162.4375 174.871094 162.597656 176.265625 C 162.761719 177.65625 161.761719 178.914062 160.371094 179.078125 C 154.476562 179.757812 151.519531 181.988281 151.519531 183.046875 C 151.519531 184.296875 155.671875 187.207031 163.722656 187.207031 C 171.777344 187.207031 175.929688 184.296875 175.929688 183.046875 C 175.929688 181.988281 172.972656 179.757812 167.078125 179.078125 C 165.6875 178.917969 164.6875 177.65625 164.847656 176.265625 C 165.007812 174.878906 166.265625 173.875 167.660156 174.039062 C 175.765625 174.976562 181 178.507812 181 183.046875 C 181.003906 189.109375 172.308594 192.28125 163.722656 192.28125 Z M 163.722656 192.28125 " fill-opacity="1" fill-rule="evenodd"/><path fill="#5b50a0" d="M 163.496094 180.617188 L 163.949219 180.617188 L 167.535156 157.691406 C 167.664062 156.851562 167.261719 156.171875 166.902344 155.75 C 166.148438 154.871094 164.898438 154.304688 163.722656 154.304688 C 162.546875 154.304688 161.296875 154.871094 160.542969 155.75 C 160.183594 156.171875 159.78125 156.851562 159.910156 157.691406 Z M 166.121094 185.6875 L 161.328125 185.6875 C 160.078125 185.6875 159.011719 184.777344 158.820312 183.542969 L 154.898438 158.472656 C 154.5625 156.332031 155.199219 154.191406 156.6875 152.453125 C 158.417969 150.433594 161.046875 149.230469 163.722656 149.230469 C 166.398438 149.230469 169.027344 150.433594 170.757812 152.453125 C 172.246094 154.191406 172.882812 156.332031 172.546875 158.472656 L 168.625 183.542969 C 168.433594 184.777344 167.371094 185.6875 166.121094 185.6875 Z M 166.121094 185.6875 " fill-opacity="1" fill-rule="evenodd"/><path fill="#5b50a0" d="M 62.347656 307.066406 L 179.378906 307.066406 L 179.378906 259.882812 L 62.347656 259.882812 Z M 181.914062 312.140625 L 59.8125 312.140625 C 58.410156 312.140625 57.273438 311.003906 57.273438 309.601562 L 57.273438 257.347656 C 57.273438 255.949219 58.410156 254.8125 59.8125 254.8125 L 181.914062 254.8125 C 183.316406 254.8125 184.453125 255.949219 184.453125 257.347656 L 184.453125 309.601562 C 184.453125 311.003906 183.316406 312.140625 181.914062 312.140625 Z M 181.914062 312.140625 " fill-opacity="1" fill-rule="evenodd"/><path fill="#5b50a0" d="M 136.789062 293.414062 L 146.246094 293.414062 L 146.246094 273.542969 L 136.789062 273.542969 Z M 148.78125 298.488281 L 134.253906 298.488281 C 132.851562 298.488281 131.714844 297.351562 131.714844 295.953125 L 131.714844 271.003906 C 131.714844 269.605469 132.851562 268.46875 134.253906 268.46875 L 148.78125 268.46875 C 150.183594 268.46875 151.320312 269.605469 151.320312 271.007812 L 151.320312 295.953125 C 151.320312 297.351562 150.183594 298.488281 148.78125 298.488281 Z M 148.78125 298.488281 " fill-opacity="1" fill-rule="evenodd"/><path fill="#5b50a0" d="M 95.480469 293.414062 L 104.9375 293.414062 L 104.9375 273.542969 L 95.480469 273.542969 Z M 107.472656 298.488281 L 92.945312 298.488281 C 91.542969 298.488281 90.40625 297.351562 90.40625 295.953125 L 90.40625 271.003906 C 90.40625 269.605469 91.542969 268.46875 92.945312 268.46875 L 107.472656 268.46875 C 108.875 268.46875 110.007812 269.605469 110.007812 271.007812 L 110.011719 295.953125 C 110.011719 297.351562 108.875 298.488281 107.472656 298.488281 Z M 107.472656 298.488281 " fill-opacity="1" fill-rule="evenodd"/><path fill="#5b50a0" d="M 62.777344 185.253906 C 58.980469 185.253906 56.988281 186.890625 56.988281 187.457031 C 56.988281 188.027344 58.980469 189.664062 62.777344 189.664062 C 66.574219 189.664062 68.566406 188.027344 68.566406 187.457031 C 68.566406 186.890625 66.574219 185.253906 62.777344 185.253906 Z M 62.777344 194.738281 C 56.582031 194.738281 51.914062 191.605469 51.914062 187.457031 C 51.914062 183.3125 56.582031 180.179688 62.777344 180.179688 C 68.96875 180.179688 73.640625 183.3125 73.640625 187.457031 C 73.640625 191.605469 68.96875 194.738281 62.777344 194.738281 Z M 62.777344 194.738281 " fill-opacity="1" fill-rule="evenodd"/><path fill="#5b50a0" d="M 90.617188 185.253906 C 86.816406 185.253906 84.828125 186.890625 84.828125 187.457031 C 84.828125 188.027344 86.816406 189.664062 90.617188 189.664062 C 94.414062 189.664062 96.40625 188.027344 96.40625 187.457031 C 96.40625 186.890625 94.414062 185.253906 90.617188 185.253906 Z M 90.617188 194.738281 C 84.421875 194.738281 79.753906 191.605469 79.753906 187.457031 C 79.753906 183.3125 84.421875 180.179688 90.617188 180.179688 C 96.808594 180.179688 101.480469 183.3125 101.480469 187.457031 C 101.480469 191.605469 96.808594 194.738281 90.617188 194.738281 Z M 90.617188 194.738281 " fill-opacity="1" fill-rule="evenodd"/><path fill="#5b50a0" d="M 118.457031 185.253906 C 114.660156 185.253906 112.667969 186.890625 112.667969 187.457031 C 112.667969 188.027344 114.660156 189.664062 118.457031 189.664062 C 122.253906 189.664062 124.246094 188.027344 124.246094 187.457031 C 124.246094 186.890625 122.253906 185.253906 118.457031 185.253906 Z M 118.457031 194.738281 C 112.261719 194.738281 107.59375 191.605469 107.59375 187.457031 C 107.59375 183.3125 112.261719 180.179688 118.457031 180.179688 C 124.648438 180.179688 129.320312 183.3125 129.320312 187.457031 C 129.320312 191.605469 124.648438 194.738281 118.457031 194.738281 Z M 118.457031 194.738281 " fill-opacity="1" fill-rule="evenodd"/></svg>