<svg xmlns="http://www.w3.org/2000/svg" width="96" height="96" fill="none" viewBox="0 0 96 96"><path fill="#000" d="M18 18H86V86H18V18Z"/><path fill="#000" fill-rule="evenodd" d="M16 18C16 16.8954 16.8954 16 18 16H86C87.1046 16 88 16.8954 88 18V86C88 87.1046 87.1046 88 86 88H18C16.8954 88 16 87.1046 16 86V18ZM20 20V84H84V20H20Z" clip-rule="evenodd"/><path fill="#fff" d="M10 10H78V78H10V10Z"/><path fill="#000" fill-rule="evenodd" d="M8 10C8 8.89543 8.89543 8 10 8H78C79.1046 8 80 8.89543 80 10V78C80 79.1046 79.1046 80 78 80H10C8.89543 80 8 79.1046 8 78V10ZM12 12V76H76V12H12Z" clip-rule="evenodd"/><path fill="#000" fill-rule="evenodd" d="M42.0002 50.343L63.1718 29.1715L68.8286 34.8283L42.0002 61.6567L23.1718 42.8283L28.8286 37.1715L42.0002 50.343Z" clip-rule="evenodd"/></svg>