<svg xmlns="http://www.w3.org/2000/svg" width="96" height="96" fill="none" viewBox="0 0 96 96"><path fill="#000" d="M18 18H86V86H18V18Z"/><path fill="#000" fill-rule="evenodd" d="M16 18C16 16.8954 16.8954 16 18 16H86C87.1046 16 88 16.8954 88 18V86C88 87.1046 87.1046 88 86 88H18C16.8954 88 16 87.1046 16 86V18ZM20 20V84H84V20H20Z" clip-rule="evenodd"/><path fill="#fff" d="M10 10H78V78H10V10Z"/><path fill="#000" fill-rule="evenodd" d="M8 10C8 8.89543 8.89543 8 10 8H78C79.1046 8 80 8.89543 80 10V78C80 79.1046 79.1046 80 78 80H10C8.89543 80 8 79.1046 8 78V10ZM12 12V76H76V12H12Z" clip-rule="evenodd"/><path fill="#000" fill-rule="evenodd" d="M29.8578 63.7989L63.7989 29.8578L58.1421 24.2009L24.201 58.1421L29.8578 63.7989Z" clip-rule="evenodd"/><path fill="#000" fill-rule="evenodd" d="M63.7991 58.1419L29.858 24.2008L24.2012 29.8577L58.1423 63.7988L63.7991 58.1419Z" clip-rule="evenodd"/></svg>